<?xml version="1.0" encoding="iso-8859-1"?>
<!-- Generator: Adobe Illustrator 19.0.0, SVG Export Plug-In . SVG Version: 6.00 Build 0)  -->
<svg version="1.1" id="Layer_1" xmlns="http://www.w3.org/2000/svg" xmlns:xlink="http://www.w3.org/1999/xlink" x="0px" y="0px"
	 viewBox="0 0 512 512" style="enable-background:new 0 0 512 512;" xml:space="preserve">
<path style="fill:#2D527C;" d="M435.122,497.167h-299.78c-25.238,0-45.772-20.533-45.772-45.772V169.581
	c0-25.238,20.533-45.772,45.772-45.772h57.486c25.237,0,45.77,20.533,45.77,45.772v6.414h227.63
	c25.238,0,45.772,20.533,45.772,45.772v201.011c0,8.243-6.684,14.927-14.927,14.927s-14.927-6.684-14.927-14.927V221.767
	c0-8.777-7.141-15.918-15.918-15.918H223.671c-8.243,0-14.927-6.684-14.927-14.927v-21.341c0-8.777-7.14-15.918-15.917-15.918
	h-57.486c-8.777,0-15.918,7.141-15.918,15.918v281.814c0,8.777,7.141,15.918,15.918,15.918h299.78
	c8.243,0,14.927,6.684,14.927,14.927S443.365,497.167,435.122,497.167z"/>
<path style="fill:#CEE8FA;" d="M104.497,169.581c0-17.035,13.809-30.845,30.845-30.845h57.486c17.035,0,30.845,13.81,30.845,30.845
	v21.341h183.83V112.79c0-17.036-13.81-30.845-30.845-30.845H134.101V60.604c0-17.036-13.809-30.845-30.845-30.845H45.77
	c-17.035,0-30.843,13.809-30.843,30.845V343.91c0,17.036,13.809,30.845,30.845,30.845h58.725V169.581z"/>
<path style="fill:#2D527C;" d="M104.497,389.682H45.77C20.533,389.682,0,369.148,0,343.91V60.604
	c0-25.238,20.533-45.772,45.77-45.772h57.486c25.238,0,45.772,20.533,45.772,45.772v6.414h227.63
	c25.238,0,45.772,20.533,45.772,45.772v78.132c0,8.243-6.684,14.927-14.927,14.927H223.671c-8.243,0-14.927-6.684-14.927-14.927
	v-21.341c0-8.777-7.141-15.918-15.918-15.918H135.34c-8.777,0-15.917,7.141-15.917,15.918v205.174
	C119.424,382.998,112.74,389.682,104.497,389.682z M45.77,44.687c-8.777,0-15.917,7.141-15.917,15.918V343.91
	c0,8.777,7.14,15.918,15.917,15.918h43.8V169.581c0-25.238,20.533-45.772,45.77-45.772h57.486c25.238,0,45.772,20.533,45.772,45.772
	v6.414h153.978V112.79c0-8.777-7.141-15.918-15.918-15.918H134.101c-8.243,0-14.927-6.684-14.927-14.927V60.604
	c0-8.777-7.141-15.918-15.918-15.918C103.256,44.687,45.77,44.687,45.77,44.687z"/>
<g>
</g>
<g>
</g>
<g>
</g>
<g>
</g>
<g>
</g>
<g>
</g>
<g>
</g>
<g>
</g>
<g>
</g>
<g>
</g>
<g>
</g>
<g>
</g>
<g>
</g>
<g>
</g>
<g>
</g>
</svg>
