<?xml version="1.0" encoding="iso-8859-1"?>
<!-- Generator: Adobe Illustrator 19.0.0, SVG Export Plug-In . SVG Version: 6.00 Build 0)  -->
<svg version="1.1" id="Layer_1" xmlns="http://www.w3.org/2000/svg" xmlns:xlink="http://www.w3.org/1999/xlink" x="0px" y="0px"
	 viewBox="0 0 512 512" style="enable-background:new 0 0 512 512;" xml:space="preserve">
<polygon style="fill:#CEE8FA;" points="192.334,258.818 192.334,416.907 319.666,416.907 319.666,258.818 380.258,258.818 
	256,95.093 131.742,258.818 "/>
<g>
	<path style="fill:#2D527C;" d="M319.664,431.967h-127.33c-8.315,0-15.059-6.743-15.059-15.059v-143.03h-45.533
		c-5.719,0-10.946-3.239-13.488-8.364c-2.542-5.122-1.965-11.244,1.492-15.8L244.004,85.989c2.848-3.751,7.285-5.954,11.996-5.954
		c4.71,0,9.148,2.203,11.996,5.954l124.258,163.726c3.457,4.555,4.036,10.678,1.492,15.8c-2.542,5.123-7.769,8.364-13.488,8.364
		h-45.533v143.03C334.723,425.224,327.981,431.967,319.664,431.967z M207.395,401.849h97.212v-143.03
		c0-8.315,6.743-15.059,15.059-15.059h30.259L256,120.001l-93.923,123.758h30.259c8.315,0,15.059,6.743,15.059,15.059
		L207.395,401.849L207.395,401.849z"/>
	<path style="fill:#2D527C;" d="M256,512C114.842,512,0,397.158,0,256S114.842,0,256,0c8.315,0,15.059,6.743,15.059,15.059
		S264.315,30.118,256,30.118C131.448,30.118,30.118,131.448,30.118,256S131.448,481.882,256,481.882S481.882,380.552,481.882,256
		c0-68.912-30.874-133.185-84.706-176.34c-6.49-5.203-7.532-14.681-2.331-21.17c5.204-6.49,14.682-7.529,21.17-2.331
		C477.015,105.064,512,177.902,512,256C512,397.158,397.158,512,256,512z"/>
</g>
<g>
</g>
<g>
</g>
<g>
</g>
<g>
</g>
<g>
</g>
<g>
</g>
<g>
</g>
<g>
</g>
<g>
</g>
<g>
</g>
<g>
</g>
<g>
</g>
<g>
</g>
<g>
</g>
<g>
</g>
</svg>
